<?xml version="1.0" encoding="UTF-8" standalone="no"?>

<svg
   xmlns:dc="http://purl.org/dc/elements/1.1/"
   xmlns:cc="http://creativecommons.org/ns#"
   xmlns:rdf="http://www.w3.org/1999/02/22-rdf-syntax-ns#"
   xmlns:svg="http://www.w3.org/2000/svg"
   xmlns="http://www.w3.org/2000/svg"
   width="280"
   height="255"
   viewbox="0 0 280 255"
   id="gaLogo"
   version="1.1">
  <g
     id="ga"
     style="fill:#ffffff;fill-opacity:1;"
     transform="translate(-77.003991,-71.906448)">
    <g
       transform="translate(5.5355338,-6.3639609)">
      <g>
        <path
           id="g"
           d="m 173.92896,309.04051 c -14.10347,11.91061 -31.63955,17.86591 -52.6083,17.86594 -14.57984,-3e-5 -26.017078,-7.57701 -34.311747,-22.73097 C 80.33897,291.9778 77.004,278.49132 77.003991,263.71602 c 9e-6,-27.54095 8.673375,-55.4637 26.020129,-83.76831 19.72883,-32.31122 42.9362,-48.4669 69.62216,-48.46707 3.90903,1.7e-4 8.19685,1.14237 12.86347,3.42659 5.62537,2.66937 8.43811,5.81499 8.43822,9.43688 -1.1e-4,2.00359 -0.69184,3.81614 -2.0752,5.43766 -1.38357,1.62183 -2.93042,2.43267 -4.64056,2.43251 -0.86133,1.6e-4 -1.62483,-0.19225 -2.29051,-0.5772 -6.00426,-3.6219 -11.96262,-5.43292 -17.87509,-5.43308 -10.10272,1.6e-4 -20.82227,5.57677 -32.15868,16.72984 -13.34604,13.05906 -24.21218,28.87879 -32.59845,47.45925 -8.575655,19.1609 -12.863475,37.74756 -12.863471,55.76003 -4e-6,11.62357 2.62033,22.44084 7.86101,32.45186 6.193501,11.72126 14.103371,17.5819 23.729621,17.58191 21.06037,-1e-5 41.88561,-13.01006 62.47579,-39.03019 18.58656,-23.63184 28.83274,-45.74282 30.73856,-66.333 0.56792,-6.76758 -0.52847,-10.15141 -3.28916,-10.15151 -3.53055,1e-4 -21.44838,9.76985 -53.75355,29.30929 -6.57839,4.00081 -10.58219,6.00119 -12.0114,6.00112 -4.47723,7e-5 -6.71581,-2.33319 -6.71576,-6.99978 -5e-5,-5.05125 11.19897,-13.00998 33.59711,-23.87622 21.24967,-10.29189 34.83081,-15.43788 40.74349,-15.438 9.62609,1.2e-4 14.4392,5.76608 14.43934,17.29789 -1.4e-4,3.52442 -0.52543,7.95578 -1.57587,13.29409 -0.47656,2.57155 -2.5596,7.41541 -3.42069,11.70315 -10.07457,29.04509 -25.67779,56.05564 -48.33554,77.07678 z" />
      </g>
      <path
         id="a"
         d="m 331.62258,260.9993 c -17.25525,-0.0916 -28.552,-26.01401 -33.89029,-77.7672 -1.80808,-0.18928 -3.95199,-0.28396 -6.43174,-0.28402 -8.76509,6e-5 -22.05916,2.0493 -39.88226,6.14771 -16.49167,3.71373 -22.19777,4.87897 -22.67416,6.02112 -3.92138,56.26371 -15.71495,24.09834 -8.22426,-3.71293 3.52575,3.08912 -1.35178,-0.64248 -11.33423,9.6517 -7.59581,4.06933 -15.66244,-5.58576 -11.23687,-7.38804 6.19351,-2.00337 12.38702,-4.05261 18.58057,-6.14771 2.29047,-4.95354 5.00853,-10.71949 8.15419,-17.29789 5.42998,-12.19761 13.91095,-30.25898 25.44292,-54.18416 11.53185,-22.3002 22.68507,-33.450363 33.45968,-33.450524 5.05123,1.61e-4 9.48259,3.240458 13.29409,9.7209 2.47974,4.28797 4.2419,8.768194 5.28648,13.440674 2.76682,12.67425 5.1978,34.44929 7.29297,65.32518 18.67816,1.6248 28.0173,8.15426 28.01744,19.58839 -1.4e-4,4.09852 -1.66763,7.00593 -5.00246,8.72224 -4.28796,2.09509 -6.43187,0.71468 -6.43173,-4.14123 -1.4e-4,-0.48249 0.47629,-2.00949 1.42927,-4.58101 -1.4e-4,-5.14289 -6.19365,-7.71436 -18.58057,-7.71442 1.14208,6e-5 1.90253,1.0934 2.28134,3.28 6.1934,43.27527 12.91221,64.91288 20.15644,64.91289 1.52686,-1e-5 3.005,-0.5253 4.43442,-1.57587 2.00328,-1.61863 3.36231,-2.57147 4.07709,-2.85855 0.71449,-0.28708 1.40469,-0.43061 2.07062,-0.43061 l 0,0 c 3.43255,-0.18935 5.14889,1.76521 5.14905,5.86369 -1.6e-4,2.66919 -2.09825,4.90777 -6.2943,6.71576 -3.33512,1.52698 -6.38302,2.24162 -9.1437,2.14391 z M 292.4458,125.32816 c -3.14572,-20.68158 -7.10065,-31.022436 -11.86481,-31.022585 -4.76433,1.49e-4 -13.48351,13.343085 -26.15755,40.028845 -4.38562,9.24763 -11.34569,25.11623 -20.88024,47.60584 22.87444,-6.57215 43.98675,-10.57289 63.33702,-12.00224 -0.66588,-9.43679 -2.14402,-24.30673 -4.43442,-44.60986 z" />
    </g>
  </g>
</svg>
